<?xml version="1.0" encoding="UTF-8"?>
<svg width="173px" height="67px" viewBox="0 0 173 67" version="1.1" xmlns="http://www.w3.org/2000/svg" xmlns:xlink="http://www.w3.org/1999/xlink">
    <!-- Generator: Sketch 54.1 (76490) - https://sketchapp.com -->
    <title>logo</title>
    <desc>Created with Sketch.</desc>
    <defs>
        <path d="M3.80698105,-1.48607422e-15 L55.385623,1.53806591e-16 C56.7093932,-8.93660588e-17 57.1894243,0.137831968 57.6733749,0.39665159 C58.1573255,0.655471213 58.5371328,1.03527849 58.7959524,1.51922911 C59.054772,2.00317972 59.192604,2.4832108 59.192604,3.80698105 L59.192604,62.6336969 C59.192604,63.9574672 59.054772,64.4374982 58.7959524,64.9214489 C58.5371328,65.4053995 58.1573255,65.7852068 57.6733749,66.0440264 C57.1894243,66.302846 56.7093932,66.440678 55.385623,66.440678 L3.80698105,66.440678 C2.4832108,66.440678 2.00317972,66.302846 1.51922911,66.0440264 C1.03527849,65.7852068 0.655471213,65.4053995 0.39665159,64.9214489 C0.137831968,64.4374982 1.83593421e-15,63.9574672 1.67381911e-15,62.6336969 L1.02537727e-16,3.80698105 C-5.95773725e-17,2.4832108 0.137831968,2.00317972 0.39665159,1.51922911 C0.655471213,1.03527849 1.03527849,0.655471213 1.51922911,0.39665159 C2.00317972,0.137831968 2.4832108,-1.24290157e-15 3.80698105,-1.48607422e-15 Z" id="path-1"></path>
        <path d="M21.9757576,1.81425723 L21.9757576,0 L24.3515152,0 L24.3515152,1.81425723 C35.2146175,2.40909383 43.9181789,11.1126552 44.5130155,21.9757576 L46.3272727,21.9757576 L46.3272727,24.3515152 L44.5130155,24.3515152 C43.9181789,35.2146175 35.2146175,43.9181789 24.3515152,44.5130155 L24.3515152,46.3272727 L21.9757576,46.3272727 L21.9757576,44.5130155 C11.1126552,43.9181789 2.40909383,35.2146175 1.81425723,24.3515152 L0,24.3515152 L4.4408921e-16,21.9757576 L1.81425723,21.9757576 C2.40909383,11.1126552 11.1126552,2.40909383 21.9757576,1.81425723 Z" id="path-3"></path>
        <filter x="-11.1%" y="-20.0%" width="122.2%" height="145.0%" filterUnits="objectBoundingBox" id="filter-5">
            <feOffset dx="0" dy="1" in="SourceAlpha" result="shadowOffsetOuter1"></feOffset>
            <feGaussianBlur stdDeviation="0.5" in="shadowOffsetOuter1" result="shadowBlurOuter1"></feGaussianBlur>
            <feColorMatrix values="0 0 0 0 0   0 0 0 0 0   0 0 0 0 0  0 0 0 0.5 0" type="matrix" in="shadowBlurOuter1" result="shadowMatrixOuter1"></feColorMatrix>
            <feMerge>
                <feMergeNode in="shadowMatrixOuter1"></feMergeNode>
                <feMergeNode in="SourceGraphic"></feMergeNode>
            </feMerge>
        </filter>
    </defs>
    <g id="src" stroke="none" stroke-width="1" fill="none" fill-rule="evenodd">
        <g id="Start1.0_home-Copy-2" transform="translate(-73.000000, -80.000000)">
            <g id="logo" transform="translate(73.000000, 80.375963)">
                <g id="img">
                    <g id="Rectangle">
                        <mask id="mask-2" fill="white">
                            <use xlink:href="#path-1"></use>
                        </mask>
                        <use id="Mask" fill="#3D5AFE" xlink:href="#path-1"></use>
                        <text id="$" mask="url(#mask-2)" font-family="Impact" font-size="10.3939394" font-style="condensed" font-weight="700" letter-spacing="0.0974431848" fill="#FFFFFF">
                            <tspan x="4.83204931" y="12.5177196">$</tspan>
                        </text>
                        <rect stroke="#FFFFFF" stroke-width="0.5" fill="#FFFFFF" mask="url(#mask-2)" x="15.5042373" y="-1.78389831" width="27.2842835" height="3.56779661" rx="1.78389831"></rect>
                    </g>
                    <path d="M29.596302,33.220339 L12.6086287,26.1987673" id="Line-9" stroke="#979797" stroke-width="0.5" stroke-linecap="square"></path>
                    <g id="Group" transform="translate(6.438367, 10.062404)">
                        <g id="Path-9" transform="translate(-0.000000, 0.000000)">
                            <mask id="mask-4" fill="white">
                                <use xlink:href="#path-3"></use>
                            </mask>
                            <use id="Mask" fill="#FFFFFF" xlink:href="#path-3"></use>
                            <polygon id="shadow" fill="#2C3F6D" opacity="0.100000001" mask="url(#mask-4)" points="5.42520119 15.5486606 23.1636364 23.1636364 38.4346013 23.1636364 54.3454545 50.7818182 28.0167942 52.8929547 25.392903 49.1785716 23.1636364 46.3272727"></polygon>
                        </g>
                        <g id="lines--helper"></g>
                        <g id="lines--main" filter="url(#filter-5)" transform="translate(3.563636, 9.206061)">
                            <circle id="Oval" fill="#EF8C25" cx="19.6" cy="13.9575758" r="1.18787879"></circle>
                            <path d="M17.5386798,17.0136086 L4.02655858,3.50148743" id="Line-3-Copy" stroke="#2C3F6D" stroke-width="1.48484848" stroke-linecap="square" transform="translate(10.708377, 10.183306) rotate(-22.000000) translate(-10.708377, -10.183306) "></path>
                            <path d="M19.6,13.9575758 L34.2235078,13.9575758" id="Line-4" stroke="#2C3F6D" stroke-width="1.48484848" stroke-linecap="square"></path>
                        </g>
                    </g>
                </g>
                <g id="Text" transform="translate(67.000000, 15.624037)" fill="#3D5AFE" fill-rule="nonzero">
                    <path d="M15.6137695,8.54296875 L15.6137695,15 L8.10839844,15 C6.78482411,15 5.55713457,14.666019 4.42529297,13.9980469 C3.29345137,13.3424446 2.38737319,12.4425513 1.70703125,11.2983398 C1.02668931,10.1603133 0.686523438,8.93571619 0.686523438,7.62451172 C0.686523438,6.58544402 0.884438125,5.62060992 1.28027344,4.72998047 C1.6637389,3.83935102 2.21728154,3.05696952 2.94091797,2.3828125 C3.65836947,1.70865548 4.49332206,1.19222185 5.44580078,0.833496094 C6.39209458,0.474770342 7.42186943,0.295410156 8.53515625,0.295410156 L15.5952148,0.295410156 L15.5952148,6.69677734 L9.11962891,0.536621094 L9.11962891,14.6938477 L15.6137695,8.54296875 Z M17.515625,0.369628906 L25.855957,0.369628906 L25.855957,15 L17.515625,15 L17.515625,0.369628906 Z M37.081543,15.0742188 L37.081543,0.276855469 L37.8237305,0.276855469 C38.8813529,0.276855469 39.8771112,0.462400488 40.8110352,0.833496094 C41.7635139,1.22314648 42.5830044,1.74576495 43.2695312,2.40136719 C43.962243,3.06933928 44.503416,3.85172078 44.8930664,4.74853516 C45.2827168,5.64534954 45.4775391,6.61018364 45.4775391,7.64306641 C45.4775391,8.69450396 45.2889016,9.66552289 44.9116211,10.5561523 C44.5219707,11.4777064 43.9869826,12.2724576 43.3066406,12.9404297 C42.6077439,13.6331415 41.7944382,14.1588524 40.8666992,14.5175781 C39.9389602,14.8886737 38.9432019,15.0742188 37.8793945,15.0742188 L37.081543,15.0742188 Z M35.8291016,0.276855469 L35.8291016,15.0742188 L34.706543,15.0742188 C33.3891536,15.0742188 32.1769261,14.7402377 31.0698242,14.0722656 C29.9627223,13.4166634 29.0813835,12.5136776 28.4257812,11.3632812 C27.7763639,10.2190698 27.4516602,8.98519542 27.4516602,7.66162109 C27.4516602,6.61636847 27.64339,5.63607229 28.0268555,4.72070312 C28.4165059,3.79914904 28.951494,3.01367512 29.6318359,2.36425781 C30.3369176,1.69628572 31.1625929,1.1829445 32.1088867,0.82421875 C33.0737353,0.459308071 34.0973253,0.276855469 35.1796875,0.276855469 L35.8291016,0.276855469 Z" id="CIO"></path>
                    <path d="M7.08398438,31.2695312 L7.09570312,31.3046875 C7.1113282,32.1054728 6.83008102,32.7753879 6.25195312,33.3144531 C5.67382523,33.8535183 4.910161,34.1230469 3.9609375,34.1230469 C2.99608893,34.1230469 2.20996397,33.7812534 1.60253906,33.0976562 C0.99511415,32.4140591 0.69140625,31.5468803 0.69140625,30.4960938 L0.69140625,28.9785156 C0.69140625,27.9277291 0.99511415,27.0595737 1.60253906,26.3740234 C2.20996397,25.6884731 2.99608893,25.3457031 3.9609375,25.3457031 C4.92578607,25.3457031 5.69335652,25.6025365 6.26367188,26.1162109 C6.83398723,26.6298854 7.1113282,27.3105426 7.09570312,28.1582031 L7.08398438,28.1933594 L5.9765625,28.1933594 C5.9765625,27.5957001 5.80078301,27.1230486 5.44921875,26.7753906 C5.09765449,26.4277326 4.6015657,26.2539062 3.9609375,26.2539062 C3.31640303,26.2539062 2.80273629,26.5136693 2.41992188,27.0332031 C2.03710746,27.552737 1.84570312,28.1972618 1.84570312,28.9667969 L1.84570312,30.4960938 C1.84570312,31.2734414 2.03710746,31.9218724 2.41992188,32.4414062 C2.80273629,32.9609401 3.31640303,33.2207031 3.9609375,33.2207031 C4.6015657,33.2207031 5.09765449,33.0478533 5.44921875,32.7021484 C5.80078301,32.3564436 5.9765625,31.8789093 5.9765625,31.2695312 L7.08398438,31.2695312 Z M9.68554688,34 L8.53125,34 L8.53125,24.859375 L9.68554688,24.859375 L9.68554688,34 Z M11.1914062,30.7714844 C11.1914062,29.8339797 11.44531,29.0615265 11.953125,28.4541016 C12.46094,27.8466767 13.1503863,27.5429688 14.0214844,27.5429688 C14.900395,27.5429688 15.594724,27.8457001 16.1044922,28.4511719 C16.6142604,29.0566437 16.8691406,29.8300734 16.8691406,30.7714844 L16.8691406,30.9003906 C16.8691406,31.8457079 16.6152369,32.6191376 16.1074219,33.2207031 C15.5996068,33.8222686 14.9082075,34.1230469 14.0332031,34.1230469 C13.1581988,34.1230469 12.4658229,33.8212921 11.9560547,33.2177734 C11.4462865,32.6142548 11.1914062,31.8418016 11.1914062,30.9003906 L11.1914062,30.7714844 Z M12.3457031,30.9003906 C12.3457031,31.572269 12.4873033,32.1269509 12.7705078,32.5644531 C13.0537124,33.0019553 13.4746066,33.2207031 14.0332031,33.2207031 C14.5839871,33.2207031 15.0019517,33.0019553 15.2871094,32.5644531 C15.5722671,32.1269509 15.7148438,31.572269 15.7148438,30.9003906 L15.7148438,30.7714844 C15.7148438,30.1074186 15.5712905,29.5546897 15.2841797,29.1132812 C14.9970689,28.6718728 14.5761746,28.4511719 14.0214844,28.4511719 C13.4707004,28.4511719 13.0537124,28.6718728 12.7705078,29.1132812 C12.4873033,29.5546897 12.3457031,30.1074186 12.3457031,30.7714844 L12.3457031,30.9003906 Z M20.859375,33.2207031 C21.2421894,33.2207031 21.5791001,33.1025402 21.8701172,32.8662109 C22.1611343,32.6298816 22.3066406,32.3398455 22.3066406,31.9960938 L23.34375,31.9960938 L23.3554688,32.03125 C23.3750001,32.5781277 23.1318385,33.0634744 22.6259766,33.4873047 C22.1201147,33.9111349 21.5312534,34.1230469 20.859375,34.1230469 C19.9374954,34.1230469 19.2324243,33.8222686 18.7441406,33.2207031 C18.2558569,32.6191376 18.0117188,31.8632858 18.0117188,30.953125 L18.0117188,30.7070312 C18.0117188,29.804683 18.2568335,29.0517608 18.7470703,28.4482422 C19.2373071,27.8447235 19.9414017,27.5429688 20.859375,27.5429688 C21.6015662,27.5429688 22.2080055,27.7617166 22.6787109,28.1992188 C23.1494164,28.6367209 23.3769532,29.1738249 23.3613281,29.8105469 L23.3496094,29.8457031 L22.3066406,29.8457031 C22.3066406,29.4589824 22.1699232,29.1298842 21.8964844,28.8583984 C21.6230455,28.5869127 21.2773458,28.4511719 20.859375,28.4511719 C20.2539032,28.4511719 19.8212904,28.6689431 19.5615234,29.1044922 C19.3017565,29.5400412 19.171875,30.0742156 19.171875,30.7070312 L19.171875,30.953125 C19.171875,31.6015657 19.30078,32.1415994 19.5585938,32.5732422 C19.8164075,33.004885 20.249997,33.2207031 20.859375,33.2207031 Z M26.5605469,31.0761719 L25.8105469,31.0761719 L25.8105469,34 L24.65625,34 L24.65625,24.859375 L25.8105469,24.859375 L25.8105469,30.15625 L26.5488281,30.15625 L28.2832031,27.6601562 L29.6660156,27.6601562 L27.4980469,30.5429688 L29.9765625,34 L28.6171875,34 L26.5605469,31.0761719 Z M33.0410156,30.8476562 L30.1699219,30.8476562 L30.1699219,29.9453125 L33.0410156,29.9453125 L33.0410156,30.8476562 Z M35.3378906,34 L34.1835938,34 L34.1835938,27.6601562 L35.3378906,27.6601562 L35.3378906,34 Z M35.3378906,26.0371094 L34.1835938,26.0371094 L34.1835938,24.859375 L35.3378906,24.859375 L35.3378906,26.0371094 Z M38.1445312,27.6601562 L38.2265625,28.6035156 C38.4375011,28.2675764 38.7021468,28.0068369 39.0205078,27.8212891 C39.3388688,27.6357413 39.7011698,27.5429688 40.1074219,27.5429688 C40.791019,27.5429688 41.3203106,27.7431621 41.6953125,28.1435547 C42.0703144,28.5439473 42.2578125,29.1621052 42.2578125,29.9980469 L42.2578125,34 L41.1035156,34 L41.1035156,30.0214844 C41.1035156,29.4628878 40.9931652,29.0664074 40.7724609,28.8320312 C40.5517567,28.5976551 40.214846,28.4804688 39.7617188,28.4804688 C39.4296858,28.4804688 39.1357435,28.5605461 38.8798828,28.7207031 C38.6240222,28.8808602 38.4199226,29.099608 38.2675781,29.3769531 L38.2675781,34 L37.1132812,34 L37.1132812,27.6601562 L38.1445312,27.6601562 Z M46.171875,30.8476562 L43.3007812,30.8476562 L43.3007812,29.9453125 L46.171875,29.9453125 L46.171875,30.8476562 Z M46.9511719,30.7714844 C46.9511719,29.8339797 47.2050756,29.0615265 47.7128906,28.4541016 C48.2207057,27.8466767 48.9101519,27.5429688 49.78125,27.5429688 C50.6601606,27.5429688 51.3544896,27.8457001 51.8642578,28.4511719 C52.374026,29.0566437 52.6289062,29.8300734 52.6289062,30.7714844 L52.6289062,30.9003906 C52.6289062,31.8457079 52.3750025,32.6191376 51.8671875,33.2207031 C51.3593725,33.8222686 50.6679731,34.1230469 49.7929688,34.1230469 C48.9179644,34.1230469 48.2255885,33.8212921 47.7158203,33.2177734 C47.2060521,32.6142548 46.9511719,31.8418016 46.9511719,30.9003906 L46.9511719,30.7714844 Z M48.1054688,30.9003906 C48.1054688,31.572269 48.2470689,32.1269509 48.5302734,32.5644531 C48.813478,33.0019553 49.2343722,33.2207031 49.7929688,33.2207031 C50.3437528,33.2207031 50.7617173,33.0019553 51.046875,32.5644531 C51.3320327,32.1269509 51.4746094,31.572269 51.4746094,30.9003906 L51.4746094,30.7714844 C51.4746094,30.1074186 51.3310561,29.5546897 51.0439453,29.1132812 C50.7568345,28.6718728 50.3359403,28.4511719 49.78125,28.4511719 C49.230466,28.4511719 48.813478,28.6718728 48.5302734,29.1132812 C48.2470689,29.5546897 48.1054688,30.1074186 48.1054688,30.7714844 L48.1054688,30.9003906 Z M58.0664062,33.0625 C57.8671865,33.4023454 57.6113297,33.6640616 57.2988281,33.8476562 C56.9863266,34.0312509 56.6250021,34.1230469 56.2148438,34.1230469 C55.523434,34.1230469 54.9843769,33.902346 54.5976562,33.4609375 C54.2109356,33.019529 54.0175781,32.3320359 54.0175781,31.3984375 L54.0175781,27.6601562 L55.171875,27.6601562 L55.171875,31.4101562 C55.171875,32.0859409 55.2714834,32.55078 55.4707031,32.8046875 C55.6699229,33.058595 55.9804666,33.1855469 56.4023438,33.1855469 C56.8125021,33.1855469 57.1513658,33.1025399 57.4189453,32.9365234 C57.6865248,32.770507 57.8886712,32.5351578 58.0253906,32.2304688 L58.0253906,27.6601562 L59.1796875,27.6601562 L59.1796875,34 L58.1425781,34 L58.0664062,33.0625 Z M62.3847656,26.1308594 L62.3847656,27.6601562 L63.5859375,27.6601562 L63.5859375,28.515625 L62.3847656,28.515625 L62.3847656,32.3652344 C62.3847656,32.6621109 62.4462884,32.8710931 62.5693359,32.9921875 C62.6923834,33.1132819 62.8554677,33.1738281 63.0585938,33.1738281 C63.1250003,33.1738281 63.1982418,33.1660157 63.2783203,33.1503906 C63.3583988,33.1347655 63.4296872,33.1152345 63.4921875,33.0917969 L63.6445312,33.8828125 C63.5585933,33.9531254 63.432618,34.010742 63.2666016,34.0556641 C63.1005851,34.1005862 62.9335946,34.1230469 62.765625,34.1230469 C62.2968727,34.1230469 61.9238295,33.9814467 61.6464844,33.6982422 C61.3691392,33.4150376 61.2304688,32.9707062 61.2304688,32.3652344 L61.2304688,28.515625 L60.2226562,28.515625 L60.2226562,27.6601562 L61.2304688,27.6601562 L61.2304688,26.1308594 L62.3847656,26.1308594 Z M71.6777344,32.3183594 C71.6777344,32.0644519 71.5810557,31.8554696 71.3876953,31.6914062 C71.194335,31.5273429 70.8281277,31.3847662 70.2890625,31.2636719 C69.5195274,31.0957023 68.9404316,30.8681655 68.5517578,30.5810547 C68.163084,30.2939439 67.96875,29.9023462 67.96875,29.40625 C67.96875,28.8906224 68.1874978,28.4511737 68.625,28.0878906 C69.0625022,27.7246076 69.632809,27.5429688 70.3359375,27.5429688 C71.0742224,27.5429688 71.6611306,27.73242 72.0966797,28.1113281 C72.5322287,28.4902363 72.7402345,28.9511692 72.7207031,29.4941406 L72.7089844,29.5292969 L71.6074219,29.5292969 C71.6074219,29.2519517 71.4912121,29.0029308 71.2587891,28.7822266 C71.026366,28.5615223 70.7187519,28.4511719 70.3359375,28.4511719 C69.9257792,28.4511719 69.6210947,28.5410147 69.421875,28.7207031 C69.2226553,28.9003915 69.1230469,29.1171862 69.1230469,29.3710938 C69.1230469,29.621095 69.2109366,29.8183587 69.3867188,29.9628906 C69.5625009,30.1074226 69.9199192,30.2363276 70.4589844,30.3496094 C71.2597696,30.5214852 71.8554668,30.7548813 72.2460938,31.0498047 C72.6367207,31.344728 72.8320312,31.7402319 72.8320312,32.2363281 C72.8320312,32.7988309 72.6044945,33.2539045 72.1494141,33.6015625 C71.6943337,33.9492205 71.099613,34.1230469 70.3652344,34.1230469 C69.5566366,34.1230469 68.9199242,33.9179708 68.4550781,33.5078125 C67.9902321,33.0976542 67.7695311,32.6191434 67.7929688,32.0722656 L67.8046875,32.0371094 L68.90625,32.0371094 C68.9257813,32.4472677 69.0781236,32.7470694 69.3632812,32.9365234 C69.6484389,33.1259775 69.98242,33.2207031 70.3652344,33.2207031 C70.7753927,33.2207031 71.0966785,33.1376961 71.3291016,32.9716797 C71.5615246,32.8056632 71.6777344,32.587892 71.6777344,32.3183594 Z M76.2070312,31.6503906 L76.4121094,32.4472656 L76.4472656,32.4472656 L78.0058594,27.6601562 L79.2890625,27.6601562 L76.6230469,34.9726562 C76.4628898,35.3984396 76.2333999,35.7695297 75.9345703,36.0859375 C75.6357407,36.4023453 75.2324244,36.5605469 74.7246094,36.5605469 C74.6308589,36.5605469 74.5117195,36.5498048 74.3671875,36.5283203 C74.2226555,36.5068358 74.1113285,36.4863282 74.0332031,36.4667969 L74.1503906,35.5585938 C74.126953,35.5546875 74.1962883,35.5585937 74.3583984,35.5703125 C74.5205086,35.5820313 74.6230467,35.5878906 74.6660156,35.5878906 C74.9121106,35.5878906 75.1132805,35.4785167 75.2695312,35.2597656 C75.425782,35.0410145 75.5566401,34.7988295 75.6621094,34.5332031 L75.9375,33.8710938 L73.5820312,27.6601562 L74.8710938,27.6601562 L76.2070312,31.6503906 Z M83.9882812,32.3183594 C83.9882812,32.0644519 83.8916025,31.8554696 83.6982422,31.6914062 C83.5048818,31.5273429 83.1386746,31.3847662 82.5996094,31.2636719 C81.8300743,31.0957023 81.2509785,30.8681655 80.8623047,30.5810547 C80.4736309,30.2939439 80.2792969,29.9023462 80.2792969,29.40625 C80.2792969,28.8906224 80.4980447,28.4511737 80.9355469,28.0878906 C81.3730491,27.7246076 81.9433559,27.5429688 82.6464844,27.5429688 C83.3847693,27.5429688 83.9716775,27.73242 84.4072266,28.1113281 C84.8427756,28.4902363 85.0507813,28.9511692 85.03125,29.4941406 L85.0195312,29.5292969 L83.9179688,29.5292969 C83.9179688,29.2519517 83.801759,29.0029308 83.5693359,28.7822266 C83.3369129,28.5615223 83.0292988,28.4511719 82.6464844,28.4511719 C82.2363261,28.4511719 81.9316416,28.5410147 81.7324219,28.7207031 C81.5332021,28.9003915 81.4335938,29.1171862 81.4335938,29.3710938 C81.4335938,29.621095 81.5214835,29.8183587 81.6972656,29.9628906 C81.8730478,30.1074226 82.2304661,30.2363276 82.7695312,30.3496094 C83.5703165,30.5214852 84.1660137,30.7548813 84.5566406,31.0498047 C84.9472676,31.344728 85.1425781,31.7402319 85.1425781,32.2363281 C85.1425781,32.7988309 84.9150413,33.2539045 84.4599609,33.6015625 C84.0048805,33.9492205 83.4101599,34.1230469 82.6757812,34.1230469 C81.8671835,34.1230469 81.2304711,33.9179708 80.765625,33.5078125 C80.3007789,33.0976542 80.080078,32.6191434 80.1035156,32.0722656 L80.1152344,32.0371094 L81.2167969,32.0371094 C81.2363282,32.4472677 81.3886704,32.7470694 81.6738281,32.9365234 C81.9589858,33.1259775 82.2929668,33.2207031 82.6757812,33.2207031 C83.0859396,33.2207031 83.4072254,33.1376961 83.6396484,32.9716797 C83.8720715,32.8056632 83.9882812,32.587892 83.9882812,32.3183594 Z M88.1015625,26.1308594 L88.1015625,27.6601562 L89.3027344,27.6601562 L89.3027344,28.515625 L88.1015625,28.515625 L88.1015625,32.3652344 C88.1015625,32.6621109 88.1630853,32.8710931 88.2861328,32.9921875 C88.4091803,33.1132819 88.5722646,33.1738281 88.7753906,33.1738281 C88.8417972,33.1738281 88.9150387,33.1660157 88.9951172,33.1503906 C89.0751957,33.1347655 89.1464841,33.1152345 89.2089844,33.0917969 L89.3613281,33.8828125 C89.2753902,33.9531254 89.1494149,34.010742 88.9833984,34.0556641 C88.817382,34.1005862 88.6503915,34.1230469 88.4824219,34.1230469 C88.0136695,34.1230469 87.6406264,33.9814467 87.3632812,33.6982422 C87.0859361,33.4150376 86.9472656,32.9707062 86.9472656,32.3652344 L86.9472656,28.515625 L85.9394531,28.515625 L85.9394531,27.6601562 L86.9472656,27.6601562 L86.9472656,26.1308594 L88.1015625,26.1308594 Z M93.3574219,34.1230469 C92.474605,34.1230469 91.7724635,33.8291045 91.2509766,33.2412109 C90.7294896,32.6533174 90.46875,31.8906297 90.46875,30.953125 L90.46875,30.6953125 C90.46875,29.7929642 90.737302,29.0419952 91.2744141,28.4423828 C91.8115261,27.8427704 92.447262,27.5429688 93.1816406,27.5429688 C94.0371137,27.5429688 94.6835916,27.8007787 95.1210938,28.3164062 C95.5585959,28.8320338 95.7773438,29.519527 95.7773438,30.3789062 L95.7773438,31.0996094 L91.6640625,31.0996094 L91.6464844,31.1289062 C91.6582032,31.7382843 91.8124985,32.2392558 92.109375,32.6318359 C92.4062515,33.024416 92.8222629,33.2207031 93.3574219,33.2207031 C93.7480488,33.2207031 94.0908188,33.1650396 94.3857422,33.0537109 C94.6806655,32.9423823 94.9355458,32.7890635 95.1503906,32.59375 L95.6015625,33.34375 C95.3749989,33.5664074 95.0761737,33.7519524 94.7050781,33.9003906 C94.3339825,34.0488289 93.8847683,34.1230469 93.3574219,34.1230469 Z M93.1816406,28.4511719 C92.7949199,28.4511719 92.4648451,28.6142562 92.1914062,28.9404297 C91.9179674,29.2666032 91.7500003,29.6757788 91.6875,30.1679688 L91.6992188,30.1972656 L94.6230469,30.1972656 L94.6230469,30.0449219 C94.6230469,29.5917946 94.5019543,29.2128921 94.2597656,28.9082031 C94.0175769,28.6035141 93.6582055,28.4511719 93.1816406,28.4511719 Z M98.1035156,27.6601562 L98.1855469,28.4921875 C98.3925792,28.1914047 98.6552718,27.9580086 98.9736328,27.7919922 C99.2919938,27.6259757 99.6621073,27.5429688 100.083984,27.5429688 C100.505861,27.5429688 100.868163,27.640624 101.170898,27.8359375 C101.473634,28.031251 101.701171,28.3242168 101.853516,28.7148438 C102.052735,28.355467 102.316405,28.0703136 102.644531,27.859375 C102.972658,27.6484364 103.355467,27.5429688 103.792969,27.5429688 C104.437503,27.5429688 104.947264,27.7646462 105.322266,28.2080078 C105.697268,28.6513694 105.884766,29.3183549 105.884766,30.2089844 L105.884766,34 L104.730469,34 L104.730469,30.1972656 C104.730469,29.5722625 104.623048,29.1298841 104.408203,28.8701172 C104.193358,28.6103503 103.873049,28.4804688 103.447266,28.4804688 C103.052732,28.4804688 102.7334,28.6171861 102.489258,28.890625 C102.245116,29.1640639 102.101563,29.5097635 102.058594,29.9277344 L102.058594,34 L100.898438,34 L100.898438,30.1972656 C100.898438,29.6035127 100.788087,29.1689467 100.567383,28.8935547 C100.346679,28.6181627 100.029299,28.4804688 99.6152344,28.4804688 C99.2636701,28.4804688 98.9746105,28.5527337 98.7480469,28.6972656 C98.5214832,28.8417976 98.3476569,29.0449206 98.2265625,29.3066406 L98.2265625,34 L97.0722656,34 L97.0722656,27.6601562 L98.1035156,27.6601562 Z" id="Clock-in-outsystem"></path>
                </g>
            </g>
        </g>
    </g>
</svg>