<?xml version="1.0" encoding="UTF-8"?>
<svg width="58px" height="66px" viewBox="0 0 58 66" version="1.1" xmlns="http://www.w3.org/2000/svg" xmlns:xlink="http://www.w3.org/1999/xlink">
    <!-- Generator: Sketch 54.1 (76490) - https://sketchapp.com -->
    <title>logo</title>
    <desc>Created with Sketch.</desc>
    <defs>
        <path d="M3.80698105,0.36969697 L54.1930189,0.36969697 C55.5167892,0.36969697 55.9968203,0.507528938 56.4807709,0.76634856 C56.9647215,1.02516818 57.3445288,1.40497546 57.6033484,1.88892608 C57.862168,2.37287669 58,2.85290777 58,4.17667802 L58,61.5627159 C58,62.8864862 57.862168,63.3665172 57.6033484,63.8504679 C57.3445288,64.3344185 56.9647215,64.7142258 56.4807709,64.9730454 C55.9968203,65.231865 55.5167892,65.369697 54.1930189,65.369697 L3.80698105,65.369697 C2.4832108,65.369697 2.00317972,65.231865 1.51922911,64.9730454 C1.03527849,64.7142258 0.655471213,64.3344185 0.39665159,63.8504679 C0.137831968,63.3665172 -1.27269026e-15,62.8864862 -1.43480536e-15,61.5627159 L1.02537727e-16,4.17667802 C-5.95773725e-17,2.85290777 0.137831968,2.37287669 0.39665159,1.88892608 C0.655471213,1.40497546 1.03527849,1.02516818 1.51922911,0.76634856 C2.00317972,0.507528938 2.4832108,0.36969697 3.80698105,0.36969697 Z" id="path-1"></path>
        <path d="M21.9757576,1.81425723 L21.9757576,0 L24.3515152,0 L24.3515152,1.81425723 C35.2146175,2.40909383 43.9181789,11.1126552 44.5130155,21.9757576 L46.3272727,21.9757576 L46.3272727,24.3515152 L44.5130155,24.3515152 C43.9181789,35.2146175 35.2146175,43.9181789 24.3515152,44.5130155 L24.3515152,46.3272727 L21.9757576,46.3272727 L21.9757576,44.5130155 C11.1126552,43.9181789 2.40909383,35.2146175 1.81425723,24.3515152 L0,24.3515152 L4.4408921e-16,21.9757576 L1.81425723,21.9757576 C2.40909383,11.1126552 11.1126552,2.40909383 21.9757576,1.81425723 Z" id="path-3"></path>
        <filter x="-11.1%" y="-20.0%" width="122.2%" height="145.0%" filterUnits="objectBoundingBox" id="filter-5">
            <feOffset dx="0" dy="1" in="SourceAlpha" result="shadowOffsetOuter1"></feOffset>
            <feGaussianBlur stdDeviation="0.5" in="shadowOffsetOuter1" result="shadowBlurOuter1"></feGaussianBlur>
            <feColorMatrix values="0 0 0 0 0   0 0 0 0 0   0 0 0 0 0  0 0 0 0.5 0" type="matrix" in="shadowBlurOuter1" result="shadowMatrixOuter1"></feColorMatrix>
            <feMerge>
                <feMergeNode in="shadowMatrixOuter1"></feMergeNode>
                <feMergeNode in="SourceGraphic"></feMergeNode>
            </feMerge>
        </filter>
    </defs>
    <g id="src" stroke="none" stroke-width="1" fill="none" fill-rule="evenodd">
        <g id="Artboard" transform="translate(-1101.000000, -693.000000)">
            <g id="logo" transform="translate(1101.000000, 693.000000)">
                <mask id="mask-2" fill="white">
                    <use xlink:href="#path-1"></use>
                </mask>
                <use id="Mask" fill="#3D5AFE" xlink:href="#path-1"></use>
                <text id="$" mask="url(#mask-2)" font-family="Impact" font-size="10.3939394" font-style="condensed" font-weight="700" letter-spacing="0.0974431848" fill="#FFFFFF">
                    <tspan x="4.75151515" y="12.7454545">$</tspan>
                </text>
                <path d="M15.2677222,0.61969697 C15.3890296,1.46777051 16.118382,2.11969697 17,2.11969697 L40.3212121,2.11969697 C41.2028301,2.11969697 41.9321825,1.46777051 42.0534899,0.61969697 L15.2677222,0.61969697 Z" id="Rectangle" stroke="#FFFFFF" stroke-width="0.5" fill="#FFFFFF" mask="url(#mask-2)"></path>
                <path d="M29.1030303,33.0363636 L12.3984848,26.1318182" id="Line-9" stroke="#979797" stroke-width="0.5" stroke-linecap="square" mask="url(#mask-2)"></path>
                <g id="Group" mask="url(#mask-2)">
                    <g transform="translate(5.939394, 9.872727)">
                        <g id="Path-9" transform="translate(-0.000000, 0.000000)">
                            <mask id="mask-4" fill="white">
                                <use xlink:href="#path-3"></use>
                            </mask>
                            <use id="Mask" fill="#FFFFFF" xlink:href="#path-3"></use>
                            <polygon id="shadow" fill="#2C3F6D" opacity="0.100000001" mask="url(#mask-4)" points="5.42520119 15.5486606 23.1636364 23.1636364 38.4346013 23.1636364 54.3454545 50.7818182 28.0167942 52.8929547 25.392903 49.1785716 23.1636364 46.3272727"></polygon>
                        </g>
                        <g id="lines--helper"></g>
                        <g id="lines--main" filter="url(#filter-5)" transform="translate(3.563636, 9.206061)">
                            <circle id="Oval" fill="#EF8C25" cx="19.6" cy="13.9575758" r="1.18787879"></circle>
                            <path d="M17.5386798,17.0136086 L4.02655858,3.50148743" id="Line-3-Copy" stroke="#2C3F6D" stroke-width="1.48484848" stroke-linecap="square" transform="translate(10.708377, 10.183306) rotate(-22.000000) translate(-10.708377, -10.183306) "></path>
                            <path d="M19.6,13.9575758 L34.2235078,13.9575758" id="Line-4" stroke="#2C3F6D" stroke-width="1.48484848" stroke-linecap="square"></path>
                        </g>
                    </g>
                </g>
            </g>
        </g>
    </g>
</svg>