<?xml version="1.0" encoding="utf-8"?>
<!DOCTYPE svg PUBLIC "-//W3C//DTD SVG 1.1//EN" "http://www.w3.org/Graphics/SVG/1.1/DTD/svg11.dtd">
<svg version="1.1" xmlns="http://www.w3.org/2000/svg" xmlns:xlink="http://www.w3.org/1999/xlink" viewBox="0 0 24 24">
	<symbol id="close" viewBox="0 0 24 24">
		<path fill="currentColor" d="M19 6l-1-1-6 6-6-6-1 1 6 6-6 6 1 1 6-6 6 6 1-1-6-6 6-6z"/>
	</symbol>
	<symbol id="plus" viewBox="0 0 24 24">
		<path fill="currentColor" d="M19 13h-6v6h-2v-6H5v-2h6V5h2v6h6v2z"/>
	</symbol>
	<symbol id="pencil" viewBox="0 0 24 24">
		<path fill="currentColor" d="M21 7V6l-3-3h-1l-2 2 4 4M3 17v4h4l11-11-4-4L3 17z"/>
	</symbol>
	<symbol id="view-list" viewBox="0 0 24 24">
		<path fill="currentColor" d="M9 5v4h12V5M9 19h12v-4H9m0-1h12v-4H9M4 9h4V5H4m0 14h4v-4H4m0-1h4v-4H4v4z"/>
	</symbol>
	<symbol id="calendar-range" viewBox="0 0 24 24">
		<path fill="currentColor" d="M9 10H7v2h2v-2m4 0h-2v2h2v-2m4 0h-2v2h2v-2m2-7h-1V1h-2v2H8V1H6v2H5a2 2 0 00-2 2v14a2 2 0 002 2h14a2 2 0 002-2V5a2 2 0 00-2-2m0 16H5V8h14v11z"/>
	</symbol>
	<symbol id="run" viewBox="0 0 24 24">
		<path fill="currentColor" d="M13.5 5.5c1 0 2-1 2-2a2 2 0 10-2 2M9.9 19.4l1-4.4 2.1 2v6h2v-7.5l-2.1-2 .6-3A7.3 7.3 0 0019 13v-2a5 5 0 01-4.3-2.4l-1-1.6A2 2 0 0012 6h-.8L6 8.4V13h2V9.6l1.8-.7L8.2 17l-5-1-.3 2 7 1.4z"/>
	</symbol>
	<symbol id="cog" viewBox="0 0 24 24">
		<path fill="currentColor" d="M12 15.5A3.5 3.5 0 018.5 12 3.5 3.5 0 0112 8.5a3.5 3.5 0 013.5 3.5 3.5 3.5 0 01-3.5 3.5m7.4-2.5a7.8 7.8 0 000-2l2.1-1.6c.2-.2.3-.5.2-.7l-2-3.4c-.2-.3-.4-.3-.6-.3l-2.5 1-1.7-1-.4-2.6c0-.2-.3-.4-.5-.4h-4c-.3 0-.5.2-.5.4l-.4 2.7c-.6.2-1.1.6-1.7 1L5 5c-.2-.1-.4 0-.6.2l-2 3.4c0 .3 0 .5.2.7l2 1.6a8.6 8.6 0 000 2l-2 1.6c-.2.2-.3.5-.2.7l2 3.4c.2.3.4.3.7.3l2.4-1 1.7 1 .4 2.6c0 .2.3.4.5.4h4c.3 0 .5-.2.5-.4l.4-2.7c.6-.2 1.1-.6 1.7-1l2.4 1c.3.1.5 0 .7-.2l2-3.4c0-.3 0-.5-.2-.7l-2-1.6z"/>
	</symbol>
	<symbol id="chart-bar" viewBox="0 0 24 24">
		<path fill="currentColor" d="M22 21H2V3h2v16h2v-9h4v9h2V6h4v13h2v-5h4v7z"/>
	</symbol>
	<symbol id="menu" viewBox="0 0 24 24">
		<path fill="currentColor" d="M3 6h18v2H3V6m0 5h18v2H3v-2m0 5h18v2H3v-2z"/>
	</symbol>
	<symbol id="alarm-off" viewBox="0 0 24 24">
		<path fill="currentColor" d="M8 3.3L6.6 1.9l-.9.7L7.2 4m9.3 14.4A7 7 0 0112 20a7 7 0 01-7-7 7 7 0 011.6-4.5M3 2.3L1.6 3.6 3 4.9l-1.1 1 1.4 1.3 1.1-.9.8.8A9 9 0 003 13a9 9 0 009 9 9 9 0 005.9-2.2L20 22l1.3-1.3L3.9 3.3l-1-1M22 5.7L17.4 2l-1.3 1.5 4.6 3.9L22 5.7M12 6a7 7 0 017 7 7 7 0 01-.4 2.4l1.5 1.5c.6-1.2.9-2.5.9-3.9a9 9 0 00-9-9c-1.4 0-2.7.3-4 1l1.6 1.4A7 7 0 0112 6z"/>
	</symbol>
	<symbol id="alarm" viewBox="0 0 24 24">
		<path fill="currentColor" d="M12 20a7 7 0 01-7-7 7 7 0 017-7 7 7 0 017 7 7 7 0 01-7 7m0-16a9 9 0 00-9 9 9 9 0 009 9 9 9 0 009-9 9 9 0 00-9-9m1 4h-2v6l5 3 1-1-4-3V8M8 3L7 2 2 6l1 1 5-4m14 3l-5-4-1 1 5 4 1-1z"/>
	</symbol>
	<symbol id="cellphone" viewBox="0 0 24 24">
		<path fill="currentColor" d="M17 19H7V5h10m0-4H7a2 2 0 00-2 2v18a2 2 0 002 2h10a2 2 0 002-2V3a2 2 0 00-2-2z"/>
	</symbol>
	<symbol id="chevron-right" viewBox="0 0 24 24">
		<path fill="currentColor" d="M9 17l4-5-4-5 1-1 6 6-6 6-1-1z"/>
	</symbol>
	<symbol id="chevron-left" viewBox="0 0 24 24">
		<path fill="currentColor" d="M15 17l-4-5 4-5-1-1-6 6 6 6 1-1z"/>
	</symbol>
	<symbol id="content-copy" viewBox="0 0 24 24">
		<path fill="currentColor" d="M19 21H8V7h11m0-2H8a2 2 0 00-2 2v14a2 2 0 002 2h11a2 2 0 002-2V7a2 2 0 00-2-2m-3-4H4a2 2 0 00-2 2v14h2V3h12V1z"/>
	</symbol>
	<symbol id="brand-name" viewBox="0 0 46 16">
		<path d="M15.6 8.5V15H8.1A7.5 7.5 0 01.7 7.6a7 7 0 012.2-5.2c.8-.7 1.6-1.2 2.5-1.6 1-.3 2-.5 3.1-.5h7.1v6.4L9.1.5v14.2l6.5-6.2zm2-8.1h8.3V15h-8.4V.4zM37 15V.3h.7a8 8 0 015.5 2.1 7.2 7.2 0 012.2 5.2 7.4 7.4 0 01-2.2 5.3 7 7 0 01-2.4 1.6 8 8 0 01-3 .6H37zM35.8.3V15h-1a7.3 7.3 0 01-6.3-3.7 7.5 7.5 0 01-.4-6.6 7 7 0 014-4c1-.3 2-.5 3-.5h.7z" fill="#3D5AFE" fill-rule="nonzero"/>
	</symbol>
</svg>

