<?xml version="1.0" encoding="utf-8"?>
<!DOCTYPE svg PUBLIC "-//W3C//DTD SVG 1.1//EN" "http://www.w3.org/Graphics/SVG/1.1/DTD/svg11.dtd">
<svg version="1.1" xmlns="http://www.w3.org/2000/svg" xmlns:xlink="http://www.w3.org/1999/xlink" viewBox="0 0 24 24">
	<symbol id="close" viewBox="0 0 24 24">
		<path fill="currentColor" d="M19 6l-1-1-6 6-6-6-1 1 6 6-6 6 1 1 6-6 6 6 1-1-6-6 6-6z"/>
	</symbol>
	<symbol id="plus" viewBox="0 0 24 24">
		<path fill="currentColor" d="M19 13h-6v6h-2v-6H5v-2h6V5h2v6h6v2z"/>
	</symbol>
	<symbol id="pencil" viewBox="0 0 24 24">
		<path fill="currentColor" d="M21 7V6l-3-3h-1l-2 2 4 4M3 17v4h4l11-11-4-4L3 17z"/>
	</symbol>
	<symbol id="view-list" viewBox="0 0 24 24">
		<path fill="currentColor" d="M9 5v4h12V5M9 19h12v-4H9m0-1h12v-4H9M4 9h4V5H4m0 14h4v-4H4m0-1h4v-4H4v4z"/>
	</symbol>
	<symbol id="calendar-range" viewBox="0 0 24 24">
		<path fill="currentColor" d="M9 10H7v2h2v-2m4 0h-2v2h2v-2m4 0h-2v2h2v-2m2-7h-1V1h-2v2H8V1H6v2H5a2 2 0 00-2 2v14a2 2 0 002 2h14a2 2 0 002-2V5a2 2 0 00-2-2m0 16H5V8h14v11z"/>
	</symbol>
	<symbol id="run" viewBox="0 0 24 24">
		<path fill="currentColor" d="M13.5 5.5c1 0 2-1 2-2a2 2 0 10-2 2M9.9 19.4l1-4.4 2.1 2v6h2v-7.5l-2.1-2 .6-3A7.3 7.3 0 0019 13v-2a5 5 0 01-4.3-2.4l-1-1.6A2 2 0 0012 6h-.8L6 8.4V13h2V9.6l1.8-.7L8.2 17l-5-1-.3 2 7 1.4z"/>
	</symbol>
	<symbol id="cog" viewBox="0 0 24 24">
		<path fill="currentColor" d="M12 15.5A3.5 3.5 0 018.5 12 3.5 3.5 0 0112 8.5a3.5 3.5 0 013.5 3.5 3.5 3.5 0 01-3.5 3.5m7.4-2.5a7.8 7.8 0 000-2l2.1-1.6c.2-.2.3-.5.2-.7l-2-3.4c-.2-.3-.4-.3-.6-.3l-2.5 1-1.7-1-.4-2.6c0-.2-.3-.4-.5-.4h-4c-.3 0-.5.2-.5.4l-.4 2.7c-.6.2-1.1.6-1.7 1L5 5c-.2-.1-.4 0-.6.2l-2 3.4c0 .3 0 .5.2.7l2 1.6a8.6 8.6 0 000 2l-2 1.6c-.2.2-.3.5-.2.7l2 3.4c.2.3.4.3.7.3l2.4-1 1.7 1 .4 2.6c0 .2.3.4.5.4h4c.3 0 .5-.2.5-.4l.4-2.7c.6-.2 1.1-.6 1.7-1l2.4 1c.3.1.5 0 .7-.2l2-3.4c0-.3 0-.5-.2-.7l-2-1.6z"/>
	</symbol>
	<symbol id="chart-bar" viewBox="0 0 24 24">
		<path fill="currentColor" d="M22 21H2V3h2v16h2v-9h4v9h2V6h4v13h2v-5h4v7z"/>
	</symbol>
	<symbol id="menu" viewBox="0 0 24 24">
		<path fill="currentColor" d="M3 6h18v2H3V6m0 5h18v2H3v-2m0 5h18v2H3v-2z"/>
	</symbol>
	<symbol id="alarm-off" viewBox="0 0 24 24">
		<path fill="currentColor" d="M8 3.3L6.6 1.9l-.9.7L7.2 4m9.3 14.4A7 7 0 0112 20a7 7 0 01-7-7 7 7 0 011.6-4.5M3 2.3L1.6 3.6 3 4.9l-1.1 1 1.4 1.3 1.1-.9.8.8A9 9 0 003 13a9 9 0 009 9 9 9 0 005.9-2.2L20 22l1.3-1.3L3.9 3.3l-1-1M22 5.7L17.4 2l-1.3 1.5 4.6 3.9L22 5.7M12 6a7 7 0 017 7 7 7 0 01-.4 2.4l1.5 1.5c.6-1.2.9-2.5.9-3.9a9 9 0 00-9-9c-1.4 0-2.7.3-4 1l1.6 1.4A7 7 0 0112 6z"/>
	</symbol>
	<symbol id="alarm" viewBox="0 0 24 24">
		<path fill="currentColor" d="M12 20a7 7 0 01-7-7 7 7 0 017-7 7 7 0 017 7 7 7 0 01-7 7m0-16a9 9 0 00-9 9 9 9 0 009 9 9 9 0 009-9 9 9 0 00-9-9m1 4h-2v6l5 3 1-1-4-3V8M8 3L7 2 2 6l1 1 5-4m14 3l-5-4-1 1 5 4 1-1z"/>
	</symbol>
	<symbol id="cellphone" viewBox="0 0 24 24">
		<path fill="currentColor" d="M17 19H7V5h10m0-4H7a2 2 0 00-2 2v18a2 2 0 002 2h10a2 2 0 002-2V3a2 2 0 00-2-2z"/>
	</symbol>
	<symbol id="chevron-right" viewBox="0 0 24 24">
		<path fill="currentColor" d="M9 17l4-5-4-5 1-1 6 6-6 6-1-1z"/>
	</symbol>
	<symbol id="chevron-left" viewBox="0 0 24 24">
		<path fill="currentColor" d="M15 17l-4-5 4-5-1-1-6 6 6 6 1-1z"/>
	</symbol>
	<symbol id="coqntent-copy" viewBox="0 0 24 24">
		<path fill="currentColor" d="M19 21H8V7h11m0-2H8a2 2 0 00-2 2v14a2 2 0 002 2h11a2 2 0 002-2V7a2 2 0 00-2-2m-3-4H4a2 2 0 00-2 2v14h2V3h12V1z"/>
	</symbol>
	<symbol id="brand" viewBox="0 0 211 65">
		<defs><path id="a" d="M4 0h50l2 1 2 1v62l-2 1H2l-2-1V2l2-1z"/><path id="c" d="M4 0h50l2 1 2 1v62l-2 1H2l-2-1V2l2-1z"/><path id="e" d="M4 0h50l2 1 2 1v62l-2 1H2l-2-1V2l2-1z"/><path d="M22 2V0h2v2c11 0 20 9 21 20h1v2h-1c-1 11-10 20-21 21v1h-2v-1C11 44 2 35 2 24H0v-2h2C2 11 11 2 22 2z" id="g"/></defs><g fill="none" fill-rule="evenodd"><path fill="#3D5AFE" fill-rule="nonzero" d="M4 0h50l2 1 2 1v62l-2 1H2l-2-1V2l2-1z"/><g><mask id="b" fill="#fff"><use xlink:href="#a"/></mask><text fill="#FFF" mask="url(#b)" font-family="Impact" font-size="10.4" font-style="condensed" font-weight="700"><tspan x="4.8" y="12.7">$</tspan></text></g><g><mask id="d" fill="#fff"><use xlink:href="#c"/></mask><path stroke="#FFF" stroke-width=".5" fill="#FFF" fill-rule="nonzero" mask="url(#d)" d="M15 1l2 1h23l2-1z"/></g><g><mask id="f" fill="#fff"><use xlink:href="#e"/></mask><path d="M29 33l-17-7" stroke="#979797" stroke-width=".5" stroke-linecap="square" mask="url(#f)"/></g><g transform="translate(6 10)"><path d="M22 2V0h2v2c11 0 20 9 21 20h1v2h-1c-1 11-10 20-21 21v1h-2v-1C11 44 2 35 2 24H0v-2h2C2 11 11 2 22 2z" fill="#FFF" fill-rule="nonzero"/><mask id="h" fill="#fff"><use xlink:href="#g"/></mask><path fill="#2C3F6D" fill-rule="nonzero" opacity=".1" mask="url(#h)" d="M5 16l18 7h15l16 28-26 2-3-4-2-3z"/><circle fill="#EF8C25" fill-rule="nonzero" cx="23.6" cy="23" r="1.2"/><path d="M24 23L6 15m18 8h14" stroke="#2C3F6D" stroke-width="1.5" stroke-linecap="square"/></g><g fill="#3D5AFE"><path d="M89.6 23.5V30h-7.5a7.5 7.5 0 01-7.4-7.4 7 7 0 012.2-5.2c.8-.7 1.6-1.2 2.5-1.6 1-.3 2-.5 3.1-.5h7.1v6.4l-6.5-6.2v14.2l6.5-6.2zm2 6.5V15.5h5.8V30h-5.9zm14.8 0V19.3h.3a7 7 0 012.4.4 5.4 5.4 0 013 2.8 5.6 5.6 0 01-.2 5c-.5.8-1.3 1.5-2.2 2-.9.4-1.9.7-3 .7h-.3zm-1.2-10.8V30h-.3c-1.1 0-2.1-.3-3-.7a5.4 5.4 0 01.7-9.8c.7-.3 1.4-.4 2.2-.4h.4zm19.2 7.6l.7.2-.6.9-.6.6c-1 1-2.5 1.5-4.3 1.5-1.2 0-2.2-.3-3-.7l-1.3-.8a5.4 5.4 0 01-1.2-6c.3-.8.7-1.4 1.2-1.9 1-1 2.3-1.5 3.9-1.5h.3v10.3h.6c1 0 2-.3 2.9-1a5.8 5.8 0 001.4-1.6zm-1.5-7.6c.4 0 .7 0 1 .3a2.1 2.1 0 011.1 1.8 2.1 2.1 0 01-1 1.9 2 2 0 01-1.1.3 2 2 0 01-1.1-.3 2.2 2.2 0 01-1-1.9c0-.4 0-.7.2-1 .2-.4.5-.6.8-.8a2 2 0 011-.3zm3.6 10.8V15.5h5.8v10l4-3.4 5.2 7.9h-6.7l-2.4-4.1V30h-5.9zm9.8-7.9l-1.8-2.8h5.1l-3.3 2.8zm6.5-6.7h8.3V30h-8.3V15.4zM160.2 30V19.3h1.6c.9 0 1.7.1 2.3.4.7.3 1.2.7 1.5 1.3.4.5.5 1.1.5 1.9V30h-5.9zm-7 0V19.3h5.8V30h-5.8zm24.2 0V15.4h.7a8 8 0 015.5 2.1 7.2 7.2 0 012.2 5.2 7.4 7.4 0 01-2.2 5.3 7 7 0 01-2.4 1.6 8 8 0 01-3 .6h-.8zM176 15.4V30h-1a7.3 7.3 0 01-6.3-3.7 7.5 7.5 0 01-.4-6.6 7 7 0 014-4c1-.3 2-.5 3-.5h.7zM194.3 30V19.3h5.8V30h-5.8zm-7-3.7v-7h5.7V30h-.6c-1 0-2-.1-2.8-.4l-1-.6-.8-.7c-.4-.6-.6-1.2-.6-2zm15.1.2v-7.2l5.8-2v2h1.9v.7h-1.8v10.1h-.5c-1 0-2-.1-2.7-.5-.9-.3-1.5-.7-2-1.3-.4-.5-.7-1.1-.7-1.8z" fill-rule="nonzero"/><text font-family="Roboto-Regular, Roboto" font-size="12" transform="translate(74 15)"><tspan x="0" y="36">Working Time Manager</tspan></text></g></g>
	</symbol>
</svg>

